<?xml version="1.0" standalone="no"?>
<!DOCTYPE svg PUBLIC "-//W3C//DTD SVG 20010904//EN"
 "http://www.w3.org/TR/2001/REC-SVG-20010904/DTD/svg10.dtd">
<svg version="1.0" xmlns="http://www.w3.org/2000/svg"
 width="774.000000pt" height="774.000000pt" viewBox="0 0 774.000000 774.000000"
 preserveAspectRatio="xMidYMid meet">
<metadata>
Created by potrace 1.14, written by Peter Selinger 2001-2017
</metadata>
<g transform="translate(0.000000,774.000000) scale(0.100000,-0.100000)"
fill="#000000" stroke="none">
<path d="M3840 7408 c0 -5 -4 -7 -9 -3 -5 3 -12 1 -16 -5 -3 -5 0 -10 7 -11 7
0 4 -5 -7 -10 -11 -6 -26 -23 -34 -40 -7 -16 -16 -27 -21 -24 -4 3 -11 -2 -14
-11 -3 -8 -11 -12 -17 -8 -8 4 -9 3 -5 -4 4 -7 2 -12 -4 -12 -6 0 -8 -4 -5
-10 3 -5 -1 -10 -10 -10 -9 0 -13 -4 -10 -10 6 -9 -8 -14 -27 -11 -5 0 -8 -6
-8 -15 0 -8 -4 -12 -10 -9 -5 3 -10 1 -10 -5 0 -6 -3 -9 -8 -6 -10 6 -45 -21
-39 -31 3 -5 -3 -10 -14 -11 -45 -4 -50 -6 -45 -17 2 -6 -2 -12 -10 -12 -7 0
-10 5 -7 11 3 6 0 5 -8 -1 -7 -7 -24 -13 -38 -13 -18 0 -22 -3 -13 -9 10 -6 7
-10 -12 -13 -17 -3 -23 -1 -19 6 4 6 -4 3 -19 -6 -17 -11 -29 -13 -36 -6 -6 6
-12 6 -17 -3 -6 -8 -4 -10 5 -4 9 5 11 4 6 -4 -4 -6 -12 -8 -19 -4 -16 10 -57
10 -57 0 0 -4 -5 -5 -11 -1 -7 4 -25 7 -41 6 -19 0 -26 3 -21 11 5 9 3 9 -8 1
-18 -13 -57 -16 -64 -3 -4 5 -14 5 -27 -2 -16 -9 -19 -8 -13 2 6 8 4 11 -7 6
-9 -3 -21 0 -28 6 -10 9 -11 9 -6 -3 5 -10 3 -9 -7 2 -11 14 -16 15 -27 5 -10
-9 -11 -9 -6 1 7 12 -5 16 -33 13 -8 -2 -10 2 -5 11 5 9 2 8 -11 -2 -11 -9
-16 -10 -11 -2 4 7 2 12 -4 12 -6 0 -9 4 -6 8 3 4 -7 8 -22 8 -17 -1 -26 4
-24 12 1 8 -2 11 -8 7 -5 -3 -10 -2 -10 4 0 11 -26 9 -37 -4 -4 -4 -2 -5 5 -1
8 5 12 -2 12 -24 0 -22 4 -29 13 -24 9 6 9 5 0 -8 -7 -8 -9 -19 -5 -23 4 -5 2
-5 -5 -1 -6 3 -15 1 -19 -5 -4 -8 -3 -9 4 -5 8 5 12 -2 12 -19 0 -18 -4 -24
-12 -19 -10 6 -10 4 0 -8 14 -17 6 -51 -11 -41 -6 3 -7 1 -3 -6 6 -9 11 -9 21
-1 12 10 13 6 5 -19 -4 -17 -12 -36 -16 -43 -6 -10 -5 -10 8 0 13 10 18 10 24
1 4 -7 3 -9 -4 -5 -6 3 -14 -4 -18 -16 -10 -32 -11 -148 -2 -148 4 0 8 5 8 12
0 6 2 9 5 6 10 -10 -7 -38 -19 -31 -6 4 -5 -1 3 -10 7 -9 18 -14 24 -10 6 3 7
1 3 -5 -4 -6 -12 -9 -20 -6 -7 3 -13 -2 -13 -10 0 -8 4 -13 9 -10 4 3 8 -2 8
-11 0 -10 5 -14 13 -9 10 6 10 4 0 -7 -15 -15 -17 -33 -4 -25 5 4 4 -8 -2 -24
-10 -25 -9 -33 3 -40 9 -6 10 -10 3 -10 -7 0 -17 8 -22 18 -6 9 -11 12 -11 5
0 -6 5 -15 10 -18 6 -4 8 -10 5 -15 -3 -4 5 -6 17 -4 23 4 23 4 0 -6 -13 -5
-28 -7 -34 -4 -7 4 -7 0 0 -12 5 -11 8 -30 7 -44 -1 -14 5 -34 14 -44 9 -11
10 -16 4 -12 -7 4 -13 2 -13 -4 0 -6 10 -15 23 -21 19 -8 19 -9 -7 -4 -26 5
-27 4 -13 -10 9 -8 20 -15 26 -15 5 0 12 -4 16 -9 3 -6 -6 -6 -25 -1 -35 10
-40 3 -7 -10 14 -5 16 -9 6 -9 -16 -1 -19 -27 -6 -49 6 -8 3 -10 -10 -5 -15 6
-16 4 -5 -9 13 -16 12 -44 -2 -67 -6 -8 -5 -12 0 -8 5 3 20 -3 33 -12 18 -14
21 -20 11 -26 -8 -5 -11 -4 -7 2 10 16 -24 26 -37 12 -8 -9 -8 -10 2 -5 11 7
17 -5 13 -27 -1 -4 4 -18 9 -30 10 -20 10 -20 -3 -4 -13 15 -15 16 -21 2 -3
-8 -1 -15 4 -15 6 0 10 -5 10 -11 0 -5 -4 -8 -9 -5 -5 3 -11 -1 -15 -9 -3 -8
-1 -17 4 -20 6 -4 10 -11 10 -16 0 -6 -6 -7 -12 -3 -9 5 -9 2 1 -9 11 -14 11
-17 0 -17 -11 0 -11 -2 1 -10 10 -6 11 -10 3 -10 -7 0 -13 -5 -13 -11 0 -5 6
-7 13 -3 9 6 9 4 1 -7 -5 -8 -10 -26 -9 -41 0 -16 -2 -28 -6 -28 -4 0 -6 -11
-4 -25 1 -14 -2 -25 -7 -25 -5 0 -6 -4 -3 -10 6 -9 -8 -14 -27 -11 -5 0 -8 -3
-8 -9 0 -21 -16 -9 -17 13 -3 41 -11 62 -23 59 -6 -1 -9 2 -5 8 3 6 10 8 15 5
4 -3 7 3 5 12 -2 10 -4 21 -4 26 -1 4 -6 7 -12 7 -8 0 -7 -6 2 -17 13 -16 12
-17 -4 -4 -11 9 -14 18 -8 25 7 8 1 12 -20 12 -19 1 -29 -3 -26 -10 3 -7 -9
-11 -32 -11 -20 1 -47 -5 -60 -13 -13 -8 -21 -9 -17 -4 3 6 2 13 -3 16 -5 3
-12 -2 -15 -11 -6 -15 -8 -15 -16 -3 -8 12 -10 12 -10 1 0 -11 -3 -11 -15 -1
-12 10 -15 9 -15 -5 0 -15 -2 -16 -17 -4 -11 10 -14 10 -9 2 7 -12 -12 -18
-38 -14 -4 1 -14 -4 -22 -10 -9 -7 -14 -8 -14 -1 0 12 -26 10 -37 -3 -5 -4 -1
-5 7 0 9 5 12 5 7 -1 -5 -5 -13 -10 -18 -10 -5 -1 -10 -3 -11 -4 -9 -9 -48 -5
-48 4 0 7 -3 7 -8 -1 -4 -6 -19 -13 -32 -15 -14 -2 -31 -7 -37 -11 -8 -5 -13
-3 -13 3 0 6 -5 8 -10 5 -6 -4 -8 -10 -5 -15 3 -5 0 -12 -6 -16 -7 -4 -9 -3
-6 3 4 6 0 13 -8 17 -8 3 -14 0 -12 -6 1 -6 -4 -13 -12 -16 -10 -3 -11 0 -5 9
6 12 5 12 -8 1 -13 -10 -17 -10 -21 0 -4 10 -6 10 -6 1 -1 -8 -16 -13 -38 -13
-29 0 -34 -3 -23 -10 12 -8 8 -10 -15 -10 -57 1 -80 -6 -79 -24 2 -16 1 -16
-16 -1 -11 10 -20 12 -24 6 -4 -6 -13 -8 -21 -5 -8 4 -17 -1 -21 -9 -3 -10
-14 -14 -30 -11 -14 3 -24 0 -24 -7 0 -8 -6 -7 -17 2 -11 10 -14 10 -9 2 4 -8
1 -13 -9 -13 -9 0 -14 -4 -11 -9 8 -12 -27 -8 -36 4 -5 7 -8 6 -8 0 0 -6 -12
-12 -26 -13 -34 -3 -46 -11 -37 -25 4 -7 0 -6 -10 2 -13 10 -17 10 -17 1 0 -7
-7 -10 -15 -7 -8 4 -17 2 -21 -4 -3 -6 -13 -8 -21 -5 -11 5 -13 2 -9 -10 5
-14 4 -15 -9 -4 -12 10 -15 10 -15 -1 0 -11 -2 -11 -10 1 -8 13 -10 12 -10 -4
0 -13 -5 -17 -20 -13 -11 3 -20 0 -20 -6 0 -8 -3 -8 -8 0 -6 10 -12 10 -28 -3
-10 -8 -13 -12 -5 -8 10 5 12 3 7 -5 -6 -9 -11 -9 -24 1 -12 10 -14 10 -8 1 5
-9 0 -13 -16 -15 -13 0 -29 -2 -37 -2 -8 -1 -16 -7 -19 -14 -2 -6 -8 -12 -13
-12 -6 0 -7 5 -4 10 3 6 1 10 -4 10 -6 0 -11 -7 -11 -15 0 -8 -3 -14 -7 -14
-23 4 -43 -2 -38 -11 3 -5 1 -10 -4 -10 -6 0 -11 6 -11 13 0 6 -10 1 -21 -13
-16 -19 -19 -20 -15 -6 6 16 4 17 -10 5 -9 -7 -23 -14 -31 -15 -8 -1 -21 -11
-30 -21 -14 -17 -14 -17 -9 1 5 15 4 17 -7 8 -8 -7 -17 -9 -21 -5 -4 4 -4 -1
0 -11 5 -13 4 -17 -4 -12 -6 3 -13 2 -17 -4 -4 -6 -11 -8 -16 -4 -5 3 -16 0
-24 -6 -8 -7 -24 -10 -35 -7 -13 3 -18 1 -13 -6 4 -6 0 -8 -10 -4 -10 3 -17 2
-17 -3 0 -6 5 -10 12 -10 6 0 9 -3 6 -6 -4 -3 -17 0 -30 7 -21 11 -22 11 -10
-4 12 -14 11 -16 -7 -12 -12 2 -21 0 -21 -5 0 -5 -7 -7 -15 -4 -8 4 -15 1 -15
-5 0 -6 5 -11 12 -11 6 0 8 -3 5 -7 -4 -3 -16 2 -27 12 -16 15 -20 15 -15 3 4
-9 0 -18 -10 -22 -9 -3 -13 -2 -10 4 3 6 -1 7 -9 4 -9 -3 -16 -14 -16 -23 0
-12 -2 -13 -9 -3 -7 11 -9 11 -14 -2 -4 -9 -12 -16 -19 -16 -9 0 -8 3 2 10 10
7 11 10 2 10 -7 0 -15 -7 -19 -16 -5 -13 -7 -13 -14 -2 -7 10 -9 10 -9 1 0 -7
-6 -13 -13 -13 -7 0 -18 -9 -24 -19 -8 -13 -21 -18 -38 -17 -17 2 -25 -2 -25
-13 0 -14 -2 -14 -10 -1 -9 14 -14 7 -11 -13 1 -4 -8 -3 -20 4 -15 8 -19 8
-15 0 4 -6 2 -11 -4 -11 -6 0 -8 -5 -4 -12 5 -8 2 -8 -10 1 -15 12 -17 12 -14
0 2 -8 -4 -13 -14 -13 -10 1 -18 -5 -19 -15 0 -10 -2 -11 -6 -3 -2 6 -9 12
-14 12 -4 0 -6 -6 -3 -14 3 -9 -1 -13 -13 -13 -13 2 -18 -4 -17 -21 1 -12 -1
-20 -4 -17 -10 10 -32 -17 -23 -29 13 -16 20 -67 8 -59 -5 3 -7 0 -5 -8 3 -8
11 -13 17 -11 7 1 10 -2 6 -8 -3 -6 -10 -8 -15 -5 -4 3 -10 -2 -14 -10 -3 -8
0 -17 5 -21 6 -3 9 -15 6 -25 -4 -16 -2 -17 16 -7 22 11 22 11 3 -11 -14 -16
-16 -21 -5 -21 12 0 12 -2 0 -9 -11 -7 -11 -9 0 -13 12 -4 11 -8 -1 -23 -8
-10 -10 -16 -4 -12 7 4 14 -1 17 -12 4 -15 1 -18 -12 -13 -13 5 -14 3 -4 -9 6
-8 13 -25 15 -39 1 -14 8 -28 13 -32 6 -5 6 -8 -2 -8 -8 0 -9 -9 -4 -27 4 -16
6 -35 3 -43 -4 -12 -3 -13 10 -3 12 11 14 9 12 -10 -1 -12 -3 -24 -4 -27 -1
-3 -2 -8 -1 -12 0 -5 -7 -8 -17 -8 -15 0 -15 -2 -2 -11 12 -8 9 -10 -12 -6
-15 2 -26 1 -23 -2 5 -10 -260 -6 -275 4 -8 5 -11 4 -6 -3 4 -7 -1 -10 -14 -9
-11 1 -20 8 -21 17 0 10 -3 9 -9 -5 -5 -11 -9 -15 -9 -8 -1 7 -8 10 -16 7 -8
-4 -12 -11 -9 -16 4 -6 -2 -7 -16 -3 -15 5 -20 4 -16 -4 4 -6 1 -11 -6 -11
-10 0 -10 -2 0 -9 8 -4 13 -11 13 -15 -1 -3 -1 -7 0 -8 5 -17 4 -50 -3 -54 -5
-3 -7 0 -6 7 2 6 -4 14 -12 16 -12 4 -12 3 -2 -5 8 -5 14 -13 15 -18 1 -5 5
-8 10 -7 4 2 7 -1 7 -6 0 -5 7 -12 16 -15 10 -4 13 -2 8 6 -5 8 -2 9 10 5 10
-4 27 -7 37 -7 14 0 18 -4 13 -12 -5 -9 -2 -9 9 1 9 7 17 10 17 5 0 -5 5 -2
11 6 9 13 10 12 5 -2 -3 -10 -1 -18 5 -18 6 0 8 -4 5 -8 -3 -5 1 -9 9 -9 8 0
12 4 9 9 -3 4 2 8 10 8 9 0 16 4 16 8 0 4 13 8 29 7 16 0 27 -4 24 -8 -3 -5
-11 -6 -19 -3 -8 3 -23 -4 -33 -16 -18 -18 -19 -24 -7 -47 15 -29 10 -55 -7
-44 -8 5 -8 2 0 -9 7 -8 10 -18 6 -22 -4 -4 1 -4 11 0 10 4 13 9 7 13 -6 4 -7
12 -1 21 6 8 10 13 11 10 0 -3 2 -13 4 -23 2 -9 -5 -22 -16 -27 -10 -6 -19 -7
-19 -3 0 4 -5 1 -11 -7 -8 -12 -9 -9 -4 10 l6 25 -20 -25 c-11 -14 -21 -21
-21 -16 0 5 -8 2 -18 -5 -15 -13 -16 -12 -4 2 10 14 10 18 -3 22 -8 4 -14 1
-12 -5 1 -5 -6 -12 -16 -13 -14 -3 -17 1 -13 13 5 15 5 15 -7 0 -10 -12 -17
-14 -24 -7 -8 8 -13 7 -18 -2 -6 -8 -4 -10 6 -5 8 4 6 1 -3 -7 -16 -12 -16
-16 -2 -36 12 -16 13 -25 5 -35 -7 -9 -11 -227 -10 -710 0 -383 -3 -701 -6
-706 -3 -6 0 -10 7 -10 8 0 6 -5 -5 -11 -9 -5 -17 -15 -17 -22 0 -7 4 -6 10 3
7 11 10 -1 10 -42 0 -31 4 -59 9 -63 19 -11 71 -12 71 -1 0 6 4 5 9 -3 6 -9
11 -10 15 -2 5 7 14 8 24 2 9 -4 23 -6 30 -4 7 3 19 0 26 -6 7 -6 16 -8 20 -4
11 12 75 13 82 2 4 -6 11 -6 20 2 8 6 14 7 14 2 0 -5 7 -10 15 -10 8 0 12 4 9
9 -3 4 0 8 5 8 6 0 11 -4 11 -10 0 -5 7 -6 17 -3 12 5 14 3 9 -8 -4 -8 -1 -6
6 3 9 10 19 14 28 8 7 -4 28 -7 45 -5 35 3 42 0 65 -29 14 -18 13 -18 -10 -11
-23 7 -23 7 -7 -9 22 -22 22 -37 0 -29 -13 4 -12 1 4 -11 22 -16 25 -51 4 -51
-6 0 -16 -7 -21 -15 -8 -12 -10 -11 -8 5 2 11 -1 21 -6 22 -5 1 -13 7 -18 15
-8 10 -9 10 -5 -2 2 -8 11 -14 18 -12 9 1 8 -3 -3 -11 -10 -8 -14 -18 -10 -23
4 -4 0 -3 -9 4 -9 6 -18 10 -21 7 -10 -10 -67 -12 -71 -2 -1 5 -13 7 -25 3
-13 -5 -20 -12 -15 -19 3 -7 -3 -4 -14 6 -18 16 -53 15 -53 -2 0 -3 -56 -6
-124 -6 -68 0 -122 -3 -119 -8 3 -5 -3 -7 -12 -5 -10 2 -20 -3 -22 -9 -3 -7 0
-13 6 -13 6 0 11 -5 11 -11 0 -5 -4 -7 -10 -4 -5 3 -10 -1 -10 -9 0 -9 5 -16
11 -16 5 0 7 -5 4 -10 -5 -8 31 -15 58 -11 4 0 7 -5 7 -12 0 -8 4 -7 10 3 5 8
10 10 10 4 0 -12 41 -11 61 2 8 5 9 3 4 -6 -6 -10 -3 -12 13 -8 13 4 22 1 22
-5 0 -8 4 -7 9 2 7 10 10 10 13 1 3 -9 36 -14 108 -17 58 -2 106 -7 108 -12 1
-4 19 -6 38 -4 25 2 33 0 29 -8 -5 -8 -1 -7 15 1 12 7 20 8 17 3 -4 -5 7 -10
23 -10 18 0 27 4 22 11 -3 6 7 3 22 -8 17 -11 25 -13 20 -5 -6 11 -5 12 7 3
13 -9 48 -15 104 -17 11 0 23 -6 28 -11 5 -7 10 -6 16 3 7 10 13 12 23 5 7 -6
28 -10 46 -10 17 1 32 -2 32 -6 0 -4 6 -5 14 -2 8 3 17 0 21 -6 5 -8 11 -8 21
1 11 9 14 9 14 0 0 -9 5 -9 20 -1 11 6 20 7 20 1 0 -5 16 -7 35 -5 19 1 37 -1
40 -5 2 -5 17 -6 31 -3 20 4 25 2 19 -8 -6 -9 -3 -10 14 -1 16 9 21 9 21 0 0
-8 5 -7 17 2 9 8 14 9 10 3 -4 -8 3 -12 21 -11 71 0 142 -7 142 -16 0 -5 6 -5
13 2 10 8 17 7 27 -2 7 -6 10 -7 7 -1 -7 12 29 12 40 -1 5 -4 3 -5 -4 -1 -6 3
-14 2 -17 -3 -3 -5 14 -7 39 -5 25 3 55 -1 68 -7 20 -11 21 -11 8 5 -12 14
-12 16 3 10 9 -3 16 -10 16 -15 0 -5 3 -8 8 -8 17 3 35 -1 29 -7 -7 -7 32 -48
54 -57 11 -4 11 -6 0 -6 -8 -1 1 -14 20 -32 19 -17 28 -28 20 -23 -9 5 -12 3
-7 -4 4 -7 15 -12 24 -13 11 0 13 -2 4 -6 -9 -4 -7 -10 7 -22 12 -10 17 -21
13 -25 -4 -4 0 -6 8 -4 8 2 14 -3 13 -9 -2 -7 8 -20 22 -29 14 -9 25 -21 25
-26 0 -5 7 -16 15 -25 8 -8 13 -19 10 -24 -4 -5 1 -6 9 -3 10 4 19 -1 23 -12
10 -28 36 -54 53 -55 10 0 11 -2 3 -6 -20 -7 -15 -23 4 -16 10 3 15 3 11 -1
-8 -10 23 -47 34 -40 4 3 5 -2 2 -10 -3 -9 2 -17 15 -21 12 -3 21 -10 21 -14
0 -5 14 -22 30 -40 17 -17 28 -37 24 -43 -4 -6 -3 -8 4 -4 6 3 19 -5 30 -19
11 -14 26 -25 33 -25 7 0 10 -3 6 -6 -3 -3 16 -28 44 -55 27 -26 49 -53 49
-59 0 -6 4 -9 8 -6 5 3 15 -4 22 -15 8 -10 21 -19 29 -19 8 0 12 -3 8 -6 -9
-10 72 -86 83 -79 6 4 10 3 9 -2 -4 -22 3 -33 21 -33 11 0 20 -6 20 -13 0 -15
41 -53 53 -49 5 1 6 -2 2 -8 -3 -5 5 -15 19 -22 14 -6 26 -17 26 -24 0 -7 9
-16 20 -19 11 -3 20 -13 20 -20 0 -8 6 -12 14 -9 8 3 17 0 22 -7 5 -8 3 -10
-7 -4 -12 8 -12 6 0 -8 7 -9 23 -17 35 -17 17 0 18 -2 6 -10 -13 -8 -12 -10 3
-10 9 0 17 -4 17 -10 0 -5 6 -10 13 -10 8 0 20 -11 27 -25 7 -14 15 -23 18
-20 3 2 17 -9 32 -25 16 -17 33 -30 39 -30 6 0 11 -4 11 -10 0 -5 7 -10 16
-10 9 0 12 -5 8 -12 -5 -7 -2 -9 8 -5 11 4 18 -1 21 -15 3 -11 10 -18 15 -15
4 3 15 -3 22 -14 8 -10 20 -19 27 -19 6 0 14 -9 18 -19 4 -13 13 -18 30 -16
13 1 22 -2 19 -6 -6 -11 20 -39 35 -39 6 0 11 -7 11 -16 0 -8 4 -13 9 -9 5 3
16 -1 24 -9 8 -8 17 -12 21 -9 3 4 6 -1 6 -11 0 -9 4 -14 10 -11 5 3 10 1 10
-4 0 -6 7 -11 15 -11 9 0 18 -7 21 -15 4 -8 9 -13 13 -10 4 2 14 -5 21 -16 8
-10 20 -19 28 -19 7 0 20 -7 29 -15 8 -8 19 -12 25 -9 6 4 8 2 4 -4 -3 -6 1
-18 10 -26 18 -19 38 -21 29 -3 -4 6 2 2 13 -10 11 -12 22 -19 26 -16 3 4 6
-1 6 -11 0 -9 4 -15 9 -12 4 3 17 -2 27 -10 10 -9 12 -12 4 -8 -12 6 -13 5 -2
-7 11 -12 14 -12 21 0 7 11 10 9 16 -8 3 -12 10 -19 15 -16 5 3 15 -1 23 -9 8
-8 17 -12 21 -9 3 4 6 1 6 -6 0 -8 6 -11 16 -7 8 3 12 2 9 -4 -3 -6 1 -10 10
-10 9 0 13 -5 10 -10 -6 -9 8 -14 28 -11 4 0 7 -4 7 -10 0 -6 7 -9 15 -5 9 3
15 0 15 -9 0 -14 12 -19 33 -16 4 0 7 -4 7 -10 0 -6 7 -9 15 -5 9 3 15 0 15
-9 0 -8 9 -15 20 -15 11 0 20 -4 20 -8 0 -5 16 -14 35 -22 19 -8 35 -16 35
-20 0 -3 9 -6 20 -6 11 0 20 4 20 9 0 4 4 6 9 3 5 -3 20 4 35 15 14 11 26 18
26 14 0 -3 13 3 29 14 16 12 34 21 40 21 6 0 11 3 11 8 0 4 11 12 25 19 19 8
24 8 19 0 -3 -7 2 -3 10 7 9 11 16 17 16 13 0 -5 6 -3 13 3 24 21 117 79 117
73 0 -4 9 3 21 15 11 12 24 20 30 17 5 -4 9 -1 9 5 0 6 5 8 10 5 6 -3 10 1 10
10 0 10 7 15 18 13 9 -2 16 3 14 10 -1 6 5 12 14 12 8 0 22 6 29 13 37 33 46
38 58 31 6 -4 9 -4 5 1 -8 8 33 45 51 45 6 0 11 5 11 10 0 6 5 10 11 10 7 0
20 10 30 22 11 11 19 18 19 15 0 -4 8 1 18 11 38 35 60 50 66 45 3 -4 6 -1 6
6 0 7 4 10 9 6 5 -3 12 4 16 15 4 11 11 18 16 15 5 -4 9 -3 9 2 0 4 16 19 35
32 19 13 43 31 53 40 43 36 86 66 93 64 5 -2 5 5 2 14 -5 13 -2 15 11 10 9 -4
15 -3 12 1 -7 12 33 44 45 37 5 -4 8 -3 7 2 -4 10 39 53 53 53 5 0 8 4 5 9 -3
4 6 13 19 19 14 7 25 16 25 22 0 6 4 9 9 5 5 -3 12 4 16 15 3 11 12 20 18 20
7 0 47 36 91 80 43 44 85 80 92 80 8 0 13 4 11 8 -1 4 55 65 126 135 70 70
127 132 127 137 0 6 6 10 14 10 8 0 18 5 22 12 5 7 3 8 -7 3 -8 -5 7 12 33 37
26 25 44 49 41 52 -4 3 1 6 10 6 9 0 17 3 17 8 0 4 16 25 35 47 19 22 45 52
58 67 12 14 25 24 30 21 6 -4 9 5 6 23 0 4 10 14 23 23 13 9 24 21 25 28 2 7
18 28 37 46 19 19 32 38 29 41 -4 3 -1 6 5 6 6 0 14 9 17 20 4 11 10 18 15 15
5 -3 11 4 15 15 3 11 11 20 16 20 5 0 9 7 9 15 0 8 4 15 10 15 5 0 9 4 7 8 -3
11 61 72 77 73 6 1 40 2 76 4 37 2 66 8 68 14 3 9 7 9 18 0 11 -9 14 -8 14 2
0 11 2 11 10 -1 5 -8 10 -10 10 -4 0 6 25 12 58 13 31 2 71 4 89 5 17 0 35 4
39 8 12 13 26 9 18 -4 -6 -10 -4 -10 7 -2 8 6 26 11 41 10 14 -1 24 3 21 8 -4
5 1 7 10 3 10 -4 17 -2 17 5 0 7 4 7 13 -1 10 -8 17 -7 25 1 9 9 12 9 12 -1 0
-11 3 -11 17 0 14 12 16 12 8 0 -6 -11 -5 -12 6 -5 16 10 20 10 72 12 26 2 36
6 31 14 -5 7 -3 8 7 3 12 -8 54 -11 62 -5 10 8 63 5 69 -4 5 -7 8 -5 8 5 0 12
8 15 30 13 16 -2 32 1 35 6 3 5 15 6 29 0 12 -4 29 -4 36 0 8 5 18 6 22 4 4
-3 8 0 8 5 0 6 5 11 11 11 5 0 7 -4 4 -10 -3 -5 -1 -10 4 -10 6 0 11 5 11 11
0 8 4 8 14 0 10 -8 16 -9 21 -1 3 6 10 8 15 5 5 -3 11 -1 14 3 5 9 42 12 163
15 40 1 73 6 73 11 0 4 12 5 26 2 15 -4 23 -3 20 2 -3 6 16 9 45 8 27 -1 52 0
54 4 2 3 16 5 32 4 43 -2 54 24 44 98 -1 4 -8 5 -16 2 -9 -4 -15 0 -15 7 0 11
-3 11 -10 -1 -5 -8 -10 -10 -10 -5 0 6 -28 10 -65 9 -50 -1 -68 3 -76 15 -9
14 -10 14 -5 -1 4 -13 0 -18 -14 -18 -11 0 -20 5 -20 11 0 5 5 7 12 3 7 -4 8
-3 4 5 -5 8 -13 7 -28 -3 -18 -13 -23 -13 -35 0 -16 16 -37 9 -27 -9 4 -7 3
-9 -1 -4 -14 12 -13 44 2 44 7 0 13 -4 13 -9 0 -5 5 -6 11 -2 8 5 7 9 -3 15
-10 6 -14 19 -12 39 3 21 -1 30 -11 30 -8 0 -15 -5 -15 -11 0 -5 5 -7 12 -3 7
4 8 3 4 -5 -11 -17 -23 -5 -28 29 -5 34 -1 37 18 13 12 -17 14 -17 27 2 13 17
26 20 91 20 46 -1 76 3 76 10 0 6 3 7 8 0 11 -15 46 -19 36 -4 -4 8 -3 10 4 5
15 -9 63 4 56 15 -3 5 1 9 8 9 8 0 14 9 14 20 0 11 -3 20 -7 20 -4 0 -6 8 -4
18 2 9 4 17 5 17 1 0 3 12 4 28 1 15 -1 27 -4 27 -9 0 -6 32 3 47 4 7 0 16
-10 22 -17 10 -17 10 2 11 17 0 17 2 5 10 -13 9 -13 10 0 10 12 0 13 2 1 9 -8
6 -10 14 -5 22 11 19 14 40 4 34 -4 -3 -7 9 -6 25 0 17 5 30 11 30 5 0 3 4 -5
10 -8 5 -11 12 -7 16 4 4 2 13 -5 21 -8 11 -7 12 5 7 12 -4 14 -1 10 15 -3 11
-10 18 -17 15 -6 -3 -2 2 8 10 15 12 16 16 5 16 -12 0 -12 2 0 9 11 7 11 9 0
13 -8 3 -10 9 -4 19 13 19 15 40 5 34 -11 -7 -7 45 4 64 7 10 5 12 -4 6 -10
-6 -12 -4 -7 7 3 9 0 21 -6 27 -9 9 -8 11 5 6 13 -5 15 -2 11 14 -3 11 -10 18
-17 15 -6 -3 -2 2 8 10 15 12 16 16 5 16 -12 0 -12 2 0 9 11 7 11 9 0 13 -8 3
-10 9 -4 19 13 19 15 40 5 34 -11 -7 -7 45 4 64 6 10 5 12 -2 7 -16 -10 -15 7
1 23 9 11 9 13 0 7 -8 -5 -13 -1 -13 9 0 9 5 13 10 10 15 -9 12 2 -6 19 -14
15 -14 16 3 16 15 0 16 2 3 10 -13 9 -13 10 0 10 12 0 13 2 1 9 -8 6 -10 14
-5 22 11 19 14 40 4 34 -4 -3 -7 9 -6 25 0 17 5 30 11 30 5 0 3 4 -5 10 -8 5
-11 12 -7 16 4 4 2 13 -5 21 -8 11 -7 12 6 7 13 -5 15 -2 9 12 -3 11 -11 22
-17 26 -7 5 -3 8 9 8 17 0 17 2 5 10 -13 9 -13 10 0 10 13 0 13 2 1 9 -12 8
-12 12 -2 24 8 10 9 17 1 22 -10 6 -5 58 7 78 4 6 1 7 -7 2 -10 -6 -12 -4 -7
7 3 9 0 21 -6 27 -9 9 -8 11 7 5 16 -6 17 -4 8 13 -6 11 -8 23 -5 27 10 10 11
46 1 46 -5 0 -6 6 -1 13 11 17 13 38 3 32 -9 -5 -7 28 5 93 5 27 3 32 -14 32
-11 0 -23 5 -26 10 -4 7 -13 6 -27 -1 -15 -8 -19 -8 -14 0 9 14 0 14 -26 0
-18 -10 -20 -9 -14 6 5 14 3 15 -6 7 -8 -6 -28 -7 -53 -2 -42 8 -42 9 -11 15
27 5 40 21 25 30 -7 5 -10 4 -6 -2 4 -6 1 -13 -6 -16 -14 -5 -39 18 -29 27 3
4 -2 4 -12 0 -16 -6 -17 -5 -5 14 7 11 17 18 22 15 5 -3 3 4 -4 15 -7 12 -19
18 -28 14 -12 -4 -11 -7 5 -13 14 -6 15 -8 4 -9 -8 -2 -19 -2 -24 -1 -5 1 -5
-4 1 -11 6 -7 9 -21 8 -30 -2 -10 2 -15 10 -12 7 3 16 1 19 -4 3 -6 -1 -12 -9
-16 -8 -3 -17 -1 -20 5 -4 5 -11 6 -17 3 -6 -4 -8 -2 -4 4 3 6 2 13 -4 17 -6
3 -10 -4 -11 -17 0 -22 -1 -22 -8 -3 -6 15 -3 24 12 34 19 14 19 14 -1 25 -20
11 -20 11 -1 46 14 25 18 28 13 10 -6 -23 -6 -24 11 -10 14 11 17 12 11 1 -6
-9 -5 -12 5 -9 8 3 13 14 11 24 -1 10 7 3 17 -16 11 -19 20 -29 21 -22 0 7 5
10 10 7 6 -4 7 -12 4 -18 -4 -7 -3 -8 1 -4 17 15 13 36 -6 32 -21 -4 -27 19
-7 31 7 4 8 3 4 -4 -4 -7 -2 -12 3 -12 6 0 11 6 11 13 1 6 7 1 16 -13 l15 -25
-7 25 c-5 20 -4 23 7 13 15 -15 33 -17 25 -4 -3 5 8 7 24 6 17 -1 30 2 30 7 0
6 7 5 15 -2 10 -9 15 -9 15 -1 0 6 5 10 12 8 7 -1 12 11 13 31 0 17 -3 32 -8
32 -5 0 -3 8 4 17 10 12 11 15 1 9 -9 -6 -11 -1 -8 18 3 15 1 24 -3 22 -4 -3
-24 -1 -44 4 -26 5 -37 4 -37 -4 0 -6 -7 -2 -15 8 -14 19 -15 19 -15 2 0 -15
-3 -16 -15 -6 -11 9 -15 9 -15 1 0 -7 -5 -9 -10 -6 -6 4 -7 11 -4 17 4 7 2 8
-5 4 -6 -4 -9 -12 -6 -17 9 -13 -9 -11 -23 3 -7 7 -12 8 -12 2 0 -5 -16 -9
-35 -10 -18 0 -32 3 -29 8 3 4 -1 6 -8 4 -39 -12 -78 -15 -72 -5 4 7 -2 7 -16
-1 -21 -11 -22 -10 -16 6 6 18 5 18 -9 0 -8 -11 -15 -14 -15 -8 0 7 -6 11 -12
9 -7 -1 -12 4 -11 11 2 6 -2 12 -7 12 -6 0 -10 7 -10 15 0 8 3 15 8 15 4 0 8
16 9 36 1 19 8 43 15 52 9 11 10 14 1 8 -14 -8 -18 6 -6 18 7 7 10 20 16 94 2
23 7 45 10 49 4 3 2 14 -3 24 -6 10 -7 20 -2 23 4 2 7 17 6 33 -1 15 4 34 10
42 8 11 8 13 -1 7 -16 -9 -17 6 -2 21 8 8 8 13 -1 18 -8 5 -7 12 5 25 12 14
13 20 4 26 -8 5 -10 3 -4 -7 5 -8 4 -11 -1 -6 -5 5 -9 15 -9 24 0 9 -9 21 -20
27 -11 6 -23 15 -26 19 -3 5 -10 8 -15 8 -21 -2 -44 11 -38 21 4 6 2 8 -4 4
-6 -3 -13 -2 -17 4 -3 5 -13 10 -22 10 -9 0 -25 8 -36 18 -11 9 -17 11 -13 5
5 -9 2 -11 -8 -7 -9 3 -16 10 -16 15 0 5 -6 9 -14 9 -8 0 -37 11 -64 25 -28
14 -57 25 -65 25 -9 0 -19 5 -23 12 -5 7 -3 8 6 3 8 -5 11 -4 6 3 -4 6 -13 9
-21 6 -8 -3 -27 1 -42 9 -35 19 -66 31 -75 29 -5 -1 -8 6 -8 16 0 14 -2 15
-10 2 -7 -11 -10 -11 -10 -2 0 7 -4 10 -10 7 -5 -3 -10 -2 -10 4 0 5 -9 8 -20
6 -11 -2 -20 0 -20 6 0 5 -7 9 -16 9 -8 0 -13 3 -11 8 3 4 -11 8 -31 9 -20 1
-38 7 -40 13 -2 5 -13 10 -23 10 -11 0 -18 4 -15 9 4 5 -5 8 -19 6 -14 -1 -25
3 -25 9 0 6 -5 4 -10 -4 -9 -13 -10 -13 -11 0 -1 8 -1 18 -1 21 1 3 -11 4 -25
1 -20 -4 -24 -2 -18 9 7 12 6 12 -7 1 -9 -7 -18 -9 -20 -3 -1 5 -12 11 -23 13
-11 1 -23 6 -26 10 -3 5 -17 9 -32 10 -17 1 -27 8 -27 18 0 12 -2 12 -9 1 -7
-11 -11 -10 -20 5 -6 11 -11 15 -11 10 0 -5 -8 -2 -17 5 -11 10 -14 10 -9 2
11 -19 -4 -16 -27 5 -11 9 -17 11 -13 5 5 -9 2 -11 -8 -7 -9 3 -14 9 -12 13 3
4 -8 6 -25 5 -16 -1 -29 2 -29 8 0 5 -4 6 -10 3 -5 -3 -10 0 -10 7 0 11 -2 10
-9 0 -6 -11 -10 -10 -15 3 -3 10 -12 15 -21 11 -8 -3 -15 -1 -15 3 0 5 -10 7
-22 3 -12 -3 -19 -1 -15 4 3 5 -2 10 -11 11 -44 3 -62 8 -62 16 0 4 -5 5 -11
1 -6 -3 -15 0 -20 7 -8 12 -11 12 -18 -1 -9 -12 -11 -12 -17 3 -3 9 -10 15
-14 12 -5 -3 -11 -1 -15 4 -3 6 -12 8 -20 4 -9 -3 -21 -1 -28 4 -6 5 -28 10
-47 12 -19 1 -38 7 -42 14 -4 7 -8 8 -8 3 0 -5 -8 -2 -17 5 -15 12 -16 12 -8
-1 7 -12 6 -13 -7 -3 -8 7 -18 10 -21 6 -4 -3 -7 -1 -7 4 0 6 -8 10 -17 8 -10
-1 -26 2 -37 7 -13 7 -16 7 -12 -1 5 -7 1 -9 -8 -5 -9 3 -16 9 -16 13 0 3 -19
7 -42 8 -23 2 -45 9 -50 15 -6 10 -8 9 -8 -2 0 -10 -3 -11 -8 -4 -7 12 -60 25
-118 29 -17 1 -37 6 -45 11 -19 12 -38 16 -76 17 -18 0 -33 3 -33 7 0 4 -18 6
-39 6 -22 -1 -39 1 -39 4 1 18 -4 23 -12 10 -8 -13 -13 -13 -31 -2 -18 11 -24
11 -38 -2 -10 -9 -24 -16 -32 -16 -12 0 -12 -2 0 -9 11 -7 11 -9 0 -13 -15 -5
-21 -68 -7 -68 5 0 6 -5 2 -11 -4 -8 -9 -7 -15 2 -5 8 -9 11 -9 6 0 -12 -48
22 -54 39 -3 9 -1 12 4 9 12 -8 12 -3 0 29 -6 17 -6 26 0 26 6 0 10 5 10 11 0
5 -4 7 -10 4 -7 -4 -7 2 0 19 5 15 6 28 0 31 -5 3 -6 15 -1 28 5 13 6 30 2 38
-5 7 -8 83 -7 166 1 84 -3 153 -7 153 -5 0 -5 5 -1 12 6 9 9 178 3 198 0 3 0
23 1 45 1 22 3 56 4 75 1 19 -1 46 -4 60 -4 14 -3 37 1 53 4 16 3 27 -2 27 -6
0 -7 6 -3 12 9 14 7 125 -2 139 -3 5 0 9 6 9 6 0 8 5 5 10 -4 6 -7 40 -7 75
-1 57 -3 63 -19 60 -11 -2 -26 -11 -35 -19 -8 -9 -20 -16 -25 -16 -6 0 -7 -6
-3 -12 6 -10 4 -10 -8 0 -14 11 -18 10 -27 -5 -8 -14 -10 -15 -11 -3 0 9 -3
11 -8 5 -10 -14 -55 -39 -48 -26 4 7 1 8 -8 5 -9 -3 -13 -10 -10 -15 3 -5 -2
-6 -10 -3 -9 3 -16 2 -16 -4 0 -12 -33 -10 -42 3 -5 6 -8 6 -8 -1 0 -6 -10
-11 -22 -10 -13 1 -26 -3 -30 -9 -5 -6 -8 -4 -8 5 0 13 -1 13 -10 0 -9 -13
-10 -13 -10 0 0 13 -1 13 -10 0 -5 -8 -10 -10 -10 -5 0 7 -15 9 -36 7 -24 -3
-39 0 -45 9 -5 8 -9 9 -9 3 0 -11 -48 -12 -65 -2 -6 3 -18 4 -28 3 -13 -3 -15
0 -8 9 7 8 4 13 -12 14 -56 7 -97 22 -97 35 0 6 -3 7 -6 4 -11 -10 -45 13 -38
25 5 7 2 9 -9 5 -9 -3 -19 -2 -22 4 -4 5 -11 6 -17 3 -7 -4 -8 -2 -4 4 8 13
-28 35 -39 24 -5 -4 -5 -2 -2 4 3 6 -3 16 -13 24 -10 8 -16 18 -13 23 3 6 1 7
-4 4 -6 -4 -21 2 -33 13 -13 11 -19 20 -14 20 5 0 -8 15 -28 33 -21 19 -38 40
-38 49 0 8 -7 15 -15 15 -8 0 -15 -4 -15 -9z m-894 -370 c4 -7 4 -10 -1 -6 -4
4 -15 2 -24 -5 -14 -11 -14 -10 -2 6 16 20 18 21 27 5z m-27 -28 c22 11 35 2
20 -16 -7 -8 -7 -14 1 -19 17 -10 11 -28 -7 -21 -15 6 -15 5 1 -13 17 -19 18
-21 2 -27 -10 -4 -22 -2 -29 5 -6 6 -7 11 -3 11 5 0 2 8 -5 17 -10 11 -10 14
-1 9 18 -11 14 5 -5 20 -17 13 -17 14 2 8 16 -6 18 -5 8 7 -7 7 -12 22 -12 34
2 18 2 18 6 -2 4 -19 8 -21 22 -13z m-32 -113 c0 -8 -6 -14 -13 -14 -7 0 -10
6 -7 14 3 7 8 13 12 13 4 0 8 -6 8 -13z m83 -13 c0 -8 -19 -13 -24 -6 -3 5 1
9 9 9 8 0 15 -2 15 -3z m-83 -27 c0 -8 -6 -14 -13 -14 -7 0 -10 6 -7 14 3 7 8
13 12 13 4 0 8 -6 8 -13z m-3 -36 c3 -5 0 -11 -7 -14 -8 -3 -14 1 -14 9 0 16
13 19 21 5z m93 -26 c4 -4 2 -5 -4 -1 -8 4 -13 1 -13 -7 0 -8 -8 -18 -17 -21
-13 -5 -14 -9 -5 -15 13 -8 6 -41 -8 -41 -14 0 -29 26 -35 60 -6 33 -5 34 10
15 16 -20 16 -20 10 2 -5 19 -2 21 24 19 17 -1 34 -6 38 -11z m-11 -95 c0 -12
-4 -16 -9 -11 -5 5 -6 14 -3 20 10 15 12 14 12 -9z m-26 -20 c6 -11 8 -20 6
-20 -3 0 -10 9 -16 20 -6 11 -8 20 -6 20 3 0 10 -9 16 -20z m-24 -15 c-3 -8 0
-16 7 -18 7 -2 9 -8 5 -12 -11 -12 -19 -1 -22 29 -2 14 1 23 6 20 5 -3 7 -12
4 -19z m50 -80 c-1 -8 -5 -17 -8 -21 -5 -4 -4 16 1 34 3 9 9 -1 7 -13z m-42
-14 c14 -15 15 -21 4 -27 -7 -4 -10 -3 -5 1 4 5 0 17 -10 27 -9 10 -14 18 -11
18 3 0 13 -9 22 -19z m-11 -33 c3 -10 9 -10 26 0 30 18 40 15 12 -4 -15 -11
-19 -20 -13 -26 16 -16 2 -38 -22 -37 -17 1 -17 2 -3 6 9 2 15 9 11 14 -3 5
-10 7 -15 3 -5 -3 -9 -2 -8 3 3 20 -2 25 -15 14 -11 -9 -16 -9 -22 1 -4 7 -4
10 1 6 10 -10 37 11 29 23 -3 5 -1 9 5 9 5 0 11 -6 14 -12z m-23 -64 c0 -2 -7
-4 -15 -4 -8 0 -15 4 -15 10 0 5 7 7 15 4 8 -4 15 -8 15 -10z m51 -35 c8 -16
8 -24 -1 -33 -8 -8 -10 -7 -5 5 3 9 -1 24 -10 33 -9 9 -12 16 -6 16 6 0 15 -9
22 -21z m45 -1 c3 -4 -1 -5 -10 -4 -8 1 -18 5 -22 8 -3 4 1 5 10 4 8 -1 18 -5
22 -8z m-62 -44 c3 -8 2 -12 -4 -9 -6 3 -10 10 -10 16 0 14 7 11 14 -7z m16
-58 c-7 -7 -14 -6 -22 3 -11 10 -9 11 7 5 18 -7 19 -6 5 12 -14 18 -14 18 3 5
12 -10 15 -17 7 -25z m-40 10 c0 -2 -8 -10 -17 -17 -16 -13 -17 -12 -4 4 13
16 21 21 21 13z m20 -41 c0 -8 6 -18 14 -22 12 -7 12 -12 -5 -33 -12 -15 -17
-18 -13 -7 5 13 2 16 -12 11 -15 -5 -16 -4 -4 4 8 6 18 8 22 6 4 -3 8 -1 8 4
0 17 -13 21 -34 11 -20 -10 -20 -9 -2 5 11 9 16 22 12 31 -3 9 -2 13 4 10 6
-3 10 -12 10 -20z m28 -10 c-3 -3 -9 2 -12 12 -6 14 -5 15 5 6 7 -7 10 -15 7
-18z m-51 -61 c-3 -3 -12 -4 -19 -1 -8 3 -5 6 6 6 11 1 17 -2 13 -5z m46 -54
c-7 -25 -16 -27 -11 -2 2 9 -3 23 -12 30 -13 11 -12 12 7 3 15 -8 20 -17 16
-31z m1987 -280 c0 -5 -2 -10 -4 -10 -3 0 -8 5 -11 10 -3 6 -1 10 4 10 6 0 11
-4 11 -10z m-70 -40 c0 -5 -2 -10 -4 -10 -3 0 -8 5 -11 10 -3 6 -1 10 4 10 6
0 11 -4 11 -10z m30 -20 c0 -5 -4 -10 -10 -10 -5 0 -10 5 -10 10 0 6 5 10 10
10 6 0 10 -4 10 -10z m-2060 -4 c0 -2 -8 -10 -17 -17 -16 -13 -17 -12 -4 4 13
16 21 21 21 13z m-2340 -752 c0 -8 -19 -13 -24 -6 -3 5 1 9 9 9 8 0 15 -2 15
-3z m-390 -445 c0 -5 -4 -9 -8 -9 -5 0 -9 7 -9 15 0 8 4 12 9 9 4 -3 8 -9 8
-15z m236 -124 c-9 -14 -12 -25 -7 -25 5 0 13 5 16 10 3 6 10 10 16 10 5 0 -1
-10 -13 -22 -13 -13 -26 -22 -30 -21 -4 2 -6 -6 -5 -17 2 -27 11 -25 27 4 7
14 19 27 27 30 7 3 2 -9 -12 -28 -14 -18 -22 -36 -18 -40 4 -4 -1 -4 -12 0
-17 7 -18 6 -7 -8 10 -13 10 -17 -1 -21 -9 -3 -13 2 -12 16 1 12 -9 37 -22 56
-23 33 -23 36 -7 48 24 17 39 17 25 -1 -9 -10 -8 -15 4 -19 8 -4 14 -3 13 1
-3 9 21 52 29 52 3 0 -2 -11 -11 -25z m6977 -9 c11 1 16 0 13 -4 -13 -12 -36
-10 -48 6 -11 15 -11 15 2 6 8 -6 23 -10 33 -8z m27 -46 c0 -5 -4 -10 -10 -10
-5 0 -10 5 -10 10 0 6 5 10 10 10 6 0 10 -4 10 -10z m-79 -33 c-10 -9 -11 -8
-5 6 3 10 9 15 12 12 3 -3 0 -11 -7 -18z m-6893 -9 c-2 -7 4 -11 12 -10 8 2
12 0 7 -4 -4 -4 -16 -8 -26 -9 -13 -1 -17 4 -13 17 5 20 23 25 20 6z m6952 6
c0 -8 -19 -13 -24 -6 -3 5 1 9 9 9 8 0 15 -2 15 -3z m75 -42 c-3 -3 -11 0 -18
7 -9 10 -8 11 6 5 10 -3 15 -9 12 -12z m-6710 -1673 c11 -16 1 -19 -13 -3 -7
8 -8 14 -3 14 5 0 13 -5 16 -11z m40 -9 c-2 -11 1 -20 7 -20 6 0 9 -3 5 -6 -3
-3 -14 -1 -24 5 -10 6 -12 11 -5 11 6 0 11 3 11 8 -2 11 1 22 5 22 3 0 3 -9 1
-20z m-75 -1 c0 -5 6 -7 13 -3 6 4 4 -2 -6 -13 -9 -11 -14 -23 -10 -26 3 -4
-2 -7 -12 -7 -14 0 -15 3 -6 14 8 10 9 16 1 21 -15 9 -12 25 5 25 8 0 15 -5
15 -11z m111 -12 c-10 -9 -11 -8 -5 6 3 10 9 15 12 12 3 -3 0 -11 -7 -18z
m6514 -7 c-6 -10 25 -51 35 -45 5 3 8 -3 7 -14 -1 -11 -6 -17 -15 -14 -8 3
-13 0 -12 -8 4 -28 0 -39 -17 -39 -15 0 -16 2 -3 10 14 9 7 15 -14 11 -5 -1
-5 4 1 11 14 18 12 50 -2 44 -7 -2 -18 0 -26 5 -11 7 -11 9 -1 9 8 0 10 5 6
13 -5 8 -2 7 9 -2 10 -8 20 -11 24 -7 4 3 -2 13 -13 21 -19 15 -19 15 1 8 18
-6 19 -5 5 13 -14 18 -14 18 2 5 10 -7 16 -17 13 -21z m-45 6 c0 -2 -12 -11
-27 -20 l-28 -17 24 20 c23 21 31 25 31 17z m-6540 -17 c0 -5 5 -7 11 -3 8 4
8 0 0 -15 -7 -11 -16 -21 -22 -21 -6 0 -8 -4 -5 -9 3 -5 -3 -20 -14 -33 -11
-14 -16 -29 -12 -33 4 -5 1 -5 -6 -1 -10 6 -10 11 -1 22 9 11 9 14 0 14 -7 0
-10 4 -6 9 3 5 1 12 -5 16 -6 4 -8 11 -4 16 3 5 10 7 15 4 8 -6 11 2 8 21 -1
8 22 24 34 24 4 0 7 -5 7 -11z m100 -25 c0 -8 -19 -13 -24 -6 -3 5 1 9 9 9 8
0 15 -2 15 -3z m-44 -29 c1 -8 -1 -17 -5 -19 -4 -3 -7 6 -7 19 0 25 8 25 12 0z
m-26 1 c0 -20 -17 -29 -26 -15 -5 8 -3 9 6 4 10 -6 12 -4 7 8 -3 10 -2 17 3
17 6 0 10 -6 10 -14z m6510 10 c0 -3 -4 -8 -10 -11 -5 -3 -10 -1 -10 4 0 6 5
11 10 11 6 0 10 -2 10 -4z m20 -16 c0 -5 -5 -10 -11 -10 -5 0 -7 5 -4 10 3 6
8 10 11 10 2 0 4 -4 4 -10z m-10 -25 c0 -1 -6 -7 -13 -13 -10 -8 -13 -6 -13 7
0 11 6 17 13 14 7 -3 13 -6 13 -8z m-6850 -29 c0 -3 -4 -8 -10 -11 -5 -3 -10
-1 -10 4 0 6 5 11 10 11 6 0 10 -2 10 -4z"/>
<path d="M2920 7000 c-9 -6 -10 -10 -3 -10 6 0 15 5 18 10 8 12 4 12 -15 0z"/>
<path d="M2910 6976 c0 -2 7 -7 16 -10 8 -3 12 -2 9 4 -6 10 -25 14 -25 6z"/>
<path d="M2913 6935 c0 -8 7 -15 15 -15 12 0 12 3 2 15 -7 8 -13 15 -15 15 -1
0 -2 -7 -2 -15z"/>
<path d="M2924 6781 c1 -9 -5 -15 -12 -13 -9 2 -11 -2 -5 -10 4 -7 8 -16 8
-20 0 -5 3 -8 8 -8 4 0 10 0 13 0 4 0 1 6 -5 14 -9 10 -8 16 4 26 19 15 19 27
1 27 -7 0 -13 -7 -12 -16z"/>
<path d="M2915 6510 c10 -11 20 -20 23 -20 3 0 -3 9 -13 20 -10 11 -20 20 -23
20 -3 0 3 -9 13 -20z"/>
<path d="M291 4458 c5 -10 11 -18 12 -18 2 0 3 8 3 18 0 10 -6 19 -13 19 -8 0
-9 -6 -2 -19z"/>
<path d="M7274 2633 c2 -10 6 -17 10 -16 15 3 16 11 2 22 -12 10 -14 9 -12 -6z"/>
<path d="M664 2647 c-5 -12 -15 -21 -22 -19 -10 2 -10 -2 0 -18 14 -21 18 -20
22 5 1 9 9 21 17 25 9 6 11 12 4 19 -7 7 -14 3 -21 -12z"/>
<path d="M2850 7141 c0 -6 4 -13 10 -16 6 -3 7 1 4 9 -7 18 -14 21 -14 7z"/>
<path d="M2850 6680 c0 -5 5 -10 11 -10 5 0 7 5 4 10 -3 6 -8 10 -11 10 -2 0
-4 -4 -4 -10z"/>
<path d="M2853 6645 c0 -8 4 -15 9 -15 4 0 8 4 8 9 0 6 -4 12 -8 15 -5 3 -9
-1 -9 -9z"/>
<path d="M4930 5979 c0 -5 5 -7 10 -4 6 3 10 8 10 11 0 2 -4 4 -10 4 -5 0 -10
-5 -10 -11z"/>
<path d="M2327 5909 c7 -7 15 -10 18 -7 3 3 -2 9 -12 12 -14 6 -15 5 -6 -5z"/>
<path d="M4855 5909 c-4 -6 -5 -12 -2 -15 2 -3 7 2 10 11 7 17 1 20 -8 4z"/>
<path d="M2777 5904 c-3 -4 -2 -14 3 -24 5 -10 6 -21 2 -25 -4 -3 0 -5 8 -3 8
2 18 7 22 12 11 15 -3 35 -19 29 -11 -4 -14 -2 -9 5 8 13 3 16 -7 6z"/>
<path d="M4877 5896 c-3 -8 -2 -18 3 -21 13 -8 20 9 11 24 -6 10 -10 9 -14 -3z"/>
<path d="M696 5368 c3 -5 10 -6 15 -3 13 9 11 12 -6 12 -8 0 -12 -4 -9 -9z"/>
<path d="M455 5240 c-3 -5 -2 -10 4 -10 5 0 13 5 16 10 3 6 2 10 -4 10 -5 0
-13 -4 -16 -10z"/>
<path d="M7350 4493 c0 -7 4 -13 9 -13 5 0 11 6 14 13 3 8 -1 14 -9 14 -8 0
-14 -6 -14 -14z"/>
<path d="M226 4480 c6 -8 10 -23 9 -32 -2 -12 2 -15 13 -10 10 4 12 7 4 10 -7
2 -10 7 -7 12 3 4 -3 14 -13 21 -15 12 -16 12 -6 -1z"/>
<path d="M7434 4458 c-4 -5 -3 -12 0 -15 3 -4 6 -1 6 5 0 6 7 9 15 6 8 -4 15
-2 15 3 0 12 -29 13 -36 1z"/>
<path d="M7365 4451 c-3 -5 -2 -12 3 -15 5 -3 9 1 9 9 0 17 -3 19 -12 6z"/>
<path d="M7477 4413 c-10 -9 -9 -23 1 -23 5 0 9 7 9 15 0 17 -1 18 -10 8z"/>
<path d="M573 2695 c0 -7 6 -11 14 -8 7 3 13 6 13 8 0 2 -6 5 -13 8 -8 3 -14
-1 -14 -8z"/>
<path d="M7349 2708 c0 -2 -2 -11 -4 -21 -3 -15 -1 -16 11 -6 7 6 11 15 8 20
-5 9 -13 12 -15 7z"/>
<path d="M545 2660 c-3 -6 1 -7 9 -4 18 7 21 14 7 14 -6 0 -13 -4 -16 -10z"/>
<path d="M575 2650 c-3 -6 1 -7 9 -4 18 7 21 14 7 14 -6 0 -13 -4 -16 -10z"/>
<path d="M7340 2646 c0 -2 7 -6 15 -10 8 -3 15 -1 15 4 0 6 -7 10 -15 10 -8 0
-15 -2 -15 -4z"/>
<path d="M7395 2631 c-3 -5 -2 -12 3 -15 5 -3 9 1 9 9 0 17 -3 19 -12 6z"/>
<path d="M590 2611 c0 -5 7 -15 17 -22 15 -13 15 -12 4 9 -12 23 -21 28 -21
13z"/>
<path d="M474 2576 c20 -16 37 -13 35 7 0 9 -2 9 -6 0 -3 -10 -10 -10 -26 -2
-21 10 -21 9 -3 -5z"/>
<path d="M316 2562 c-3 -5 1 -9 9 -9 8 0 12 4 9 9 -3 4 -7 8 -9 8 -2 0 -6 -4
-9 -8z"/>
</g>
</svg>
