<?xml version="1.0" standalone="no"?>
<!DOCTYPE svg PUBLIC "-//W3C//DTD SVG 20010904//EN"
 "http://www.w3.org/TR/2001/REC-SVG-20010904/DTD/svg10.dtd">
<svg version="1.0" xmlns="http://www.w3.org/2000/svg"
 width="511.000000pt" height="511.000000pt" viewBox="0 0 511.000000 511.000000"
 preserveAspectRatio="xMidYMid meet">
<metadata>
Created by potrace 1.14, written by Peter Selinger 2001-2017
</metadata>
<g transform="translate(0.000000,511.000000) scale(0.100000,-0.100000)"
fill="#000000" stroke="none">
<path d="M2535 4943 c-34 -80 -178 -182 -295 -210 -60 -14 -191 -3 -217 19 -7
6 -13 7 -13 4 0 -4 -10 -1 -22 6 -13 7 -25 13 -28 14 -17 4 -47 20 -59 31 -19
20 -23 12 -21 -54 0 -32 0 -209 0 -393 -1 -184 -1 -339 0 -345 0 -5 2 -107 3
-225 2 -152 7 -226 17 -252 8 -21 17 -38 21 -38 4 0 10 -8 13 -17 3 -10 27
-30 54 -45 41 -23 63 -28 152 -32 135 -6 168 -12 231 -36 58 -23 132 -71 151
-99 22 -31 40 -29 79 11 20 21 41 38 47 38 6 0 12 4 14 8 6 15 108 52 180 65
40 8 109 15 152 16 103 3 162 32 211 106 19 29 20 49 22 657 1 392 -2 630 -8
633 -5 4 -21 -3 -35 -14 -15 -12 -35 -21 -45 -21 -11 0 -19 -4 -19 -8 0 -4
-10 -8 -22 -9 -11 -1 -24 -6 -27 -10 -9 -12 -30 -15 -117 -15 -67 0 -92 4
-145 28 -67 30 -159 85 -159 95 0 4 -14 22 -31 40 -18 19 -36 46 -41 62 -13
37 -25 34 -43 -10z m60 -153 c0 -27 -25 -46 -49 -37 -19 8 -21 42 -4 61 19 20
53 4 53 -24z m-415 -166 c0 -25 -34 -38 -59 -24 -22 12 -21 53 3 66 24 14 56
-10 56 -42z m-179 36 c17 -9 25 -59 9 -61 -3 0 -13 -2 -23 -4 -10 -2 -27 6
-37 18 -19 19 -19 22 -3 39 19 21 27 22 54 8z m329 0 c19 -10 20 -44 1 -63
-14 -14 -59 0 -64 21 -4 18 19 52 35 52 5 0 18 -5 28 -10z m169 -4 c9 -11 8
-15 -4 -20 -9 -3 -14 -10 -11 -15 9 -14 -16 -19 -41 -8 -14 6 -19 15 -15 26
11 32 51 42 71 17z m332 -6 c13 -10 18 -19 12 -20 -7 0 -12 -3 -12 -7 6 -36
-31 -36 -56 1 -14 19 -14 22 2 33 22 17 27 16 54 -7z m152 9 c18 -8 23 -17 19
-35 -2 -13 -7 -24 -11 -25 -37 -6 -61 -4 -62 5 0 6 -2 21 -5 33 -2 14 2 23 14
26 9 3 18 5 19 6 1 0 13 -4 26 -10z m175 -5 c2 -1 1 -16 -3 -33 -6 -27 -11
-31 -35 -29 -23 2 -29 8 -33 31 -4 32 16 50 48 40 11 -3 22 -7 23 -9z m-493
-24 c3 -1 13 -3 23 -4 62 -5 110 -59 56 -64 -13 -1 -34 -8 -47 -16 -12 -8 -33
-17 -47 -21 -27 -7 -131 -47 -195 -75 -102 -45 -116 -53 -107 -62 6 -6 30 1
62 16 29 14 57 23 61 20 5 -3 9 -1 9 3 0 5 8 9 18 10 9 1 40 12 67 24 28 12
53 23 57 23 4 1 16 9 27 18 11 9 22 14 25 11 2 -3 30 7 61 21 l57 26 -4 -30
c-3 -20 0 -30 9 -30 7 0 13 4 13 9 0 5 9 7 19 4 17 -4 18 -9 10 -31 -13 -34
-28 -43 -50 -29 -13 8 -15 13 -6 19 8 5 8 8 1 8 -7 0 -20 -12 -30 -27 -22 -35
-75 -83 -91 -83 -18 0 -16 -17 3 -28 23 -13 9 -49 -22 -55 -13 -2 -27 0 -30 4
-7 11 5 49 14 46 4 -1 8 1 10 6 3 10 -4 9 -45 -8 -32 -13 -55 -20 -113 -29
-17 -3 -73 10 -112 27 -18 8 -28 19 -28 33 0 12 -6 27 -14 33 -14 11 -10 65 4
56 4 -3 11 6 14 20 17 66 178 161 269 159 26 -1 49 -3 52 -4z m494 -151 c-5
-9 -6 -19 -2 -22 3 -3 -7 -9 -22 -13 -51 -13 -72 49 -24 73 19 10 26 9 40 -5
11 -11 14 -22 8 -33z m-1150 29 c15 -9 16 -15 7 -40 -14 -38 -56 -34 -71 6
-14 40 23 60 64 34z m165 -3 c23 -23 2 -64 -30 -60 -30 3 -31 3 -40 39 -5 21
-4 27 5 22 6 -4 11 -2 11 3 0 16 36 13 54 -4z m148 -2 c7 -25 -1 -42 -23 -54
-16 -8 -21 -6 -28 13 -11 29 3 58 28 58 10 0 21 -8 23 -17z m676 -8 c7 -15 8
-26 1 -30 -5 -4 -7 -10 -5 -14 6 -9 -51 -7 -60 2 -13 13 -9 52 6 59 29 13 47
8 58 -17z m-162 -173 c-1 -20 -7 -26 -28 -29 -43 -6 -61 41 -26 68 18 14 23
15 38 2 9 -8 17 -26 16 -41z m-833 30 c17 -19 13 -62 -7 -62 -34 1 -55 13 -53
33 3 45 33 59 60 29z m159 6 c36 -30 26 -68 -18 -68 -19 0 -35 11 -46 31 -3 8
32 49 42 49 3 0 13 -6 22 -12z m829 2 c14 0 11 -50 -4 -64 -7 -7 -19 -11 -27
-8 -16 5 -40 31 -40 43 0 16 33 40 47 35 8 -3 19 -6 24 -6z m157 -2 c5 -7 9
-24 8 -38 -1 -21 -6 -25 -33 -26 -25 -1 -32 3 -36 23 -7 40 37 70 61 41z
m-823 -21 c18 -26 20 -56 3 -53 -38 7 -56 19 -60 41 -6 29 -5 30 21 32 12 1
28 -8 36 -20z m824 -102 c3 -4 7 -151 7 -328 1 -297 0 -325 -17 -364 -11 -24
-24 -44 -29 -44 -19 -3 -25 -5 -46 -17 -21 -11 -85 -16 -136 -11 -19 2 -119
-11 -155 -21 -35 -9 -99 -51 -157 -104 -22 -20 -43 -36 -47 -36 -3 0 -44 28
-91 63 -101 76 -162 93 -353 101 -38 2 -86 10 -107 19 -63 28 -67 55 -67 402
0 165 2 310 5 322 3 18 12 22 47 25 78 6 1140 -1 1146 -7z"/>
<path d="M2018 4202 c-21 -4 -23 -25 -6 -55 20 -34 20 -532 1 -570 -27 -54
-13 -64 85 -61 151 4 176 16 222 109 34 69 40 96 44 218 6 178 -38 288 -137
338 -36 19 -163 32 -209 21z m207 -166 c20 -86 14 -348 -9 -403 -17 -39 -45
-61 -64 -49 -11 6 -9 527 2 545 15 24 57 -30 71 -93z"/>
<path d="M2440 4196 c-14 -14 -12 -32 5 -49 12 -12 15 -65 16 -302 2 -258 0
-289 -14 -300 -20 -14 -23 -55 -4 -55 7 0 36 -16 66 -35 29 -19 62 -35 73 -35
17 0 19 4 12 28 -4 15 -8 65 -10 112 -6 195 -6 261 -2 266 10 10 40 -10 49
-32 6 -17 16 -24 34 -24 26 0 28 7 28 95 0 88 -3 95 -25 91 -13 -3 -26 -5 -29
-5 -4 -1 -10 -12 -13 -26 -4 -16 -13 -25 -27 -25 -19 0 -20 5 -17 118 3 109 4
117 23 118 25 0 65 -16 65 -28 0 -4 0 -10 0 -13 0 -3 6 -19 15 -35 13 -24 19
-28 37 -21 20 7 22 15 23 80 0 40 -4 76 -10 79 -16 11 -285 8 -295 -2z"/>
<path d="M2799 4193 c-7 -8 -5 -22 5 -42 13 -25 16 -72 17 -263 0 -128 0 -241
0 -251 -1 -11 -15 -32 -31 -47 -33 -30 -47 -69 -27 -71 22 -2 142 2 190 6 75
7 131 36 150 78 34 72 12 124 -50 118 -6 0 -14 -16 -18 -33 -11 -52 -30 -75
-62 -74 l-28 1 -3 247 c-2 205 0 254 13 285 11 26 12 40 5 47 -15 15 -149 14
-161 -1z"/>
<path d="M1615 3948 c-104 -21 -197 -41 -205 -43 -8 -2 -60 -15 -115 -30 -55
-14 -111 -28 -125 -31 -14 -3 -61 -17 -105 -32 -44 -14 -84 -27 -90 -28 -5 -1
-59 -21 -120 -44 -60 -22 -117 -43 -125 -45 -14 -3 -161 -66 -235 -100 -16 -7
-55 -24 -85 -38 -31 -13 -75 -36 -99 -51 l-44 -28 7 -81 c8 -116 13 -156 25
-206 16 -71 15 -71 -130 -72 -71 -1 -132 -2 -136 -3 -22 -4 -30 -19 -30 -55 0
-32 4 -41 21 -44 12 -3 1042 -5 2291 -5 1249 0 2344 -1 2435 -2 91 -1 170 -1
175 0 6 1 13 2 18 1 20 -5 115 -2 140 4 23 6 27 12 27 45 0 21 -6 43 -14 49
-8 7 -61 11 -144 10 -73 0 -136 2 -141 6 -9 5 -8 36 2 53 5 7 17 95 23 172 2
25 6 63 9 84 3 29 0 43 -13 53 -24 18 -299 151 -327 157 -5 1 -28 11 -50 21
-22 10 -45 19 -50 20 -6 2 -40 14 -75 28 -55 21 -97 36 -120 42 -9 3 -44 16
-80 31 -19 8 -44 16 -55 19 -11 2 -50 13 -88 24 -37 11 -69 20 -72 21 -3 0
-10 3 -17 5 -33 11 -217 57 -247 61 -19 2 -37 7 -41 9 -4 3 -25 8 -46 11 -22
3 -43 7 -49 8 -5 1 -14 4 -20 7 -5 3 -25 6 -44 8 -19 2 -44 6 -55 10 -12 4
-41 7 -66 7 l-45 -1 -2 -40 c-2 -36 -3 -59 -3 -117 0 -10 0 -24 0 -30 -1 -7
-1 -58 0 -113 0 -55 -1 -110 -4 -122 -20 -91 -133 -192 -224 -199 -18 -1 -36
-4 -39 -7 -3 -3 -15 -2 -28 3 -13 5 -25 6 -29 3 -3 -3 -31 -7 -63 -9 -32 -1
-69 -6 -83 -9 -14 -3 -29 -7 -35 -8 -40 -10 -116 -61 -160 -109 -29 -32 -55
-58 -58 -58 -3 0 -35 29 -71 64 -36 36 -86 74 -113 86 -43 19 -67 23 -188 35
-22 2 -40 4 -40 5 0 0 -29 2 -65 4 -67 3 -129 28 -161 66 -9 11 -19 16 -23 13
-3 -4 -6 1 -6 10 0 10 -4 17 -8 17 -5 0 -17 17 -27 38 -17 32 -20 65 -23 252
-2 150 -7 218 -15 226 -9 9 -59 2 -202 -28z m29 -124 c20 -8 22 -77 3 -92 -7
-6 -58 -21 -112 -32 -55 -12 -134 -31 -175 -42 -41 -11 -81 -22 -90 -23 -8 -2
-16 -4 -17 -5 -3 -3 -5 -3 -48 -14 -110 -29 -443 -149 -565 -204 -25 -12 -48
-21 -52 -22 -4 0 -22 -9 -40 -19 -31 -17 -33 -21 -32 -72 1 -47 9 -114 14
-114 1 0 4 -14 6 -31 5 -33 1 -35 -60 -34 -35 1 -39 3 -42 33 -1 12 -3 22 -4
22 -4 0 -21 107 -23 152 -1 17 -5 34 -8 37 -3 4 -4 17 -2 30 6 27 109 79 331
167 70 27 134 54 142 58 9 5 31 12 50 16 19 4 41 11 50 16 8 4 56 20 105 34
50 15 99 31 110 36 11 5 40 13 65 19 25 6 52 12 60 15 19 5 259 62 285 68 32
7 33 7 49 1z m1909 -8 c9 0 17 -3 17 -6 0 -3 14 -7 32 -8 18 -2 52 -9 75 -17
24 -8 49 -15 56 -15 15 0 265 -69 292 -80 11 -5 63 -23 115 -40 114 -37 220
-76 277 -102 49 -21 96 -41 103 -43 3 0 44 -20 92 -43 77 -37 117 -70 103 -84
-3 -3 -7 -27 -10 -54 -11 -111 -24 -187 -34 -197 -11 -11 -80 -12 -91 -1 -6 6
-6 23 0 44 9 35 20 102 25 152 2 24 -4 31 -49 52 -58 27 -129 59 -136 60 -3 1
-64 25 -136 54 -73 29 -141 52 -152 52 -12 0 -24 5 -27 10 -3 6 -12 10 -20 10
-8 0 -26 5 -42 12 -33 13 -24 11 -143 43 -52 14 -99 28 -105 29 -5 2 -13 4
-17 5 -4 1 -22 7 -40 12 -33 10 -192 47 -238 55 -33 7 -41 16 -45 50 -5 46 9
63 47 57 18 -4 41 -6 51 -7z"/>
<path d="M79 2892 l-45 -3 0 -487 c1 -337 -2 -496 -10 -519 -7 -18 -8 -33 -3
-33 5 0 9 -13 9 -30 0 -17 6 -31 13 -32 53 -6 3523 -9 4507 -4 283 1 523 6
533 11 15 6 18 17 15 51 -2 24 1 44 6 44 6 0 5 5 -1 11 -7 7 -8 21 -3 40 5 16
6 29 2 29 -10 0 -8 322 2 338 4 6 4 12 -1 12 -10 0 -10 91 0 108 5 6 4 12 -2
12 -10 0 -8 46 3 57 3 3 1 13 -6 20 -9 11 -9 16 1 23 7 4 9 10 5 13 -7 4 -9
72 -3 132 0 6 -1 29 -4 53 -3 23 -1 42 4 42 6 0 6 7 1 18 -5 9 -8 34 -6 55 l1
37 -81 0 c-426 3 -4902 4 -4937 2z m741 -145 c105 -24 184 -91 218 -184 19
-52 21 -75 18 -243 -1 -102 -6 -196 -9 -210 -19 -71 -116 -165 -197 -191 -86
-28 -260 -16 -331 22 -72 38 -141 125 -153 194 -4 17 -6 107 -7 200 0 133 3
180 16 215 49 137 164 210 330 209 39 -1 90 -6 115 -12z m1903 -5 c57 -16 121
-53 150 -86 10 -12 30 -46 45 -76 25 -53 26 -61 26 -235 0 -195 -3 -226 -27
-272 -61 -117 -176 -174 -344 -168 -172 6 -284 88 -316 232 -13 57 -15 342 -4
390 17 67 83 155 137 183 95 50 229 63 333 32z m-748 -4 c12 -7 13 -217 1
-236 -4 -6 -23 -9 -46 -7 -22 2 -42 0 -45 -4 -2 -5 -5 -77 -6 -160 -1 -173 2
-168 -87 -165 -55 2 -64 6 -69 27 -1 7 -4 21 -7 32 -2 11 -5 24 -5 28 -1 4
-25 7 -53 5 l-53 -3 -2 -87 c-1 -55 2 -88 8 -88 6 0 7 -5 4 -10 -4 -6 -3 -9 2
-8 4 1 18 -2 31 -6 21 -7 23 -12 20 -74 l-3 -67 -148 -1 c-92 0 -150 3 -154
10 -4 6 -7 37 -8 69 0 56 1 59 28 64 15 3 31 13 36 22 9 20 8 492 -2 507 -3 6
-19 14 -34 17 -27 5 -28 8 -28 64 1 32 4 63 8 69 7 12 595 14 612 2z m1799
-16 c28 -13 64 -33 81 -46 37 -29 81 -106 90 -161 8 -45 8 -300 1 -361 -14
-111 -94 -198 -211 -229 -30 -8 -461 -15 -481 -8 -6 2 -11 30 -10 68 0 64 0
65 33 76 l33 11 0 259 c0 239 -1 260 -17 265 -42 13 -48 21 -50 70 -2 87 -22
81 245 79 221 -1 240 -3 286 -23z m778 19 c4 0 7 -30 7 -66 -1 -64 -1 -65 -32
-73 l-32 -8 -1 -257 c-1 -141 1 -258 5 -258 3 -1 41 -3 83 -4 l77 -3 10 30 c6
17 9 33 6 36 -3 3 0 11 6 19 12 14 126 19 144 5 11 -7 15 -241 5 -244 -3 0
-134 -2 -292 -3 -288 -3 -288 -3 -289 19 -5 124 -7 115 29 127 17 6 32 16 33
22 7 81 2 493 -6 504 -6 8 -20 15 -33 16 -12 0 -23 8 -23 17 -5 57 -3 107 3
116 5 7 57 10 150 9 79 -2 146 -3 150 -4z"/>
<path d="M635 2588 c-45 -16 -82 -55 -92 -96 -5 -21 -8 -100 -7 -178 2 -164
13 -201 72 -231 55 -27 167 -23 214 8 35 23 65 79 53 99 -3 5 -3 10 2 10 9 0
8 238 -1 285 -7 39 -36 77 -72 94 -37 19 -130 24 -169 9z"/>
<path d="M2515 2585 c-79 -28 -92 -66 -90 -265 1 -161 12 -200 63 -232 46 -29
159 -32 208 -5 62 33 69 54 71 237 2 138 -1 171 -15 200 -32 66 -144 96 -237
65z"/>
<path d="M1604 2565 c-3 -11 -4 -48 -2 -80 l3 -60 49 -3 c54 -4 66 5 66 49 0
34 17 47 56 43 46 -4 56 6 44 43 l-11 30 -100 0 c-93 -1 -100 -2 -105 -22z"/>
<path d="M3489 2571 c-1 -25 -1 -443 0 -472 l1 -27 93 2 c171 4 190 31 189
262 0 222 -17 245 -184 249 -84 2 -98 0 -99 -14z"/>
<path d="M2305 1672 c-3 -3 -517 -6 -1143 -7 -625 -1 -1143 -3 -1149 -4 -7 0
-13 -14 -13 -30 0 -25 5 -31 32 -37 18 -4 49 -8 68 -10 19 -1 71 -5 115 -8 44
-4 87 -8 95 -11 8 -2 42 -7 75 -10 33 -3 76 -7 95 -10 19 -3 60 -7 90 -10 30
-3 71 -7 90 -9 52 -7 159 -18 210 -22 25 -2 64 -6 88 -8 23 -2 45 -6 49 -10 3
-3 12 -1 18 4 14 12 67 -33 105 -90 109 -159 384 -453 615 -655 38 -33 74 -66
81 -73 7 -6 17 -12 23 -12 6 0 11 -4 11 -9 0 -5 21 -24 46 -42 25 -19 56 -44
70 -57 13 -13 24 -20 24 -17 0 3 10 -3 22 -15 40 -37 285 -199 292 -193 3 3 6
2 6 -4 0 -5 17 -18 38 -29 20 -10 39 -21 42 -24 3 -3 21 -13 40 -23 73 -39 95
-52 102 -62 5 -7 14 -6 26 1 10 7 41 24 68 39 27 14 61 34 76 43 148 91 201
122 209 122 6 0 7 5 4 10 -3 6 -1 10 6 10 9 0 141 91 159 110 3 3 23 18 45 35
22 16 42 31 45 35 3 3 22 18 43 33 20 16 49 40 62 53 14 14 25 22 25 18 0 -3
12 8 27 25 15 17 30 31 34 31 11 0 246 228 354 343 74 78 83 89 155 177 25 30
47 57 50 60 3 3 29 35 59 73 29 37 60 71 70 76 14 8 91 17 201 26 19 2 62 6
95 9 33 3 85 9 115 12 68 6 126 14 165 20 16 3 55 7 85 9 30 1 71 6 90 9 19 4
67 9 105 12 144 11 160 12 178 19 20 8 24 64 5 67 -13 1 -86 6 -123 8 -11 0
-231 0 -490 0 -258 0 -479 0 -490 0 -11 0 -105 0 -210 0 -104 0 -223 1 -263 2
-39 2 -72 0 -72 -4 0 -4 -6 -5 -14 -2 -18 7 -156 10 -156 4 0 -3 -69 -4 -153
-3 -83 2 -159 3 -167 3 -8 0 -28 -1 -45 -3 -16 -1 -40 1 -51 5 -12 4 -25 4
-28 1 -5 -5 -71 -8 -78 -3 -10 6 -75 4 -71 -2 2 -5 -6 -4 -19 1 -13 4 -32 7
-43 4 -27 -5 -44 -5 -82 0 -18 2 -33 1 -33 -2 0 -8 -79 -6 -86 2 -3 3 -18 1
-34 -3 -16 -4 -31 -5 -34 -2 -8 7 -44 10 -51 4z m-915 -250 c19 -21 52 -58 73
-82 56 -65 261 -271 368 -370 51 -47 113 -104 138 -127 25 -24 52 -43 59 -43
6 0 12 -4 12 -9 0 -11 152 -127 162 -124 4 2 8 -3 8 -11 0 -8 9 -18 20 -21 11
-3 20 -11 20 -16 0 -5 4 -9 9 -9 6 0 39 -20 75 -45 36 -25 66 -42 66 -37 0 4
5 -1 11 -11 5 -9 19 -17 29 -17 11 0 20 -4 20 -8 0 -13 81 -47 103 -44 38 7
268 143 275 163 2 5 8 9 13 9 8 0 114 77 145 105 6 6 28 24 48 40 21 17 48 38
60 49 11 10 43 37 70 60 66 56 111 98 256 241 116 113 157 156 265 277 22 24
51 51 65 59 29 18 105 19 105 2 0 -26 -98 -135 -345 -383 -189 -189 -274 -268
-402 -372 -23 -18 -46 -38 -52 -44 -12 -11 -170 -128 -221 -164 -70 -49 -135
-88 -135 -82 0 4 -4 2 -8 -4 -4 -6 -37 -26 -75 -44 l-67 -33 -78 38 c-42 21
-103 55 -135 77 -32 21 -63 38 -68 38 -5 0 -9 5 -9 10 0 6 -7 10 -15 10 -8 0
-15 5 -15 10 0 6 -5 10 -11 10 -6 0 -16 6 -24 13 -7 6 -25 21 -41 32 -15 11
-46 35 -68 52 -23 18 -54 43 -70 55 -16 13 -43 35 -60 50 -17 15 -42 36 -56
48 -109 93 -490 460 -477 460 2 0 -18 24 -47 54 -112 118 -151 168 -140 178 3
4 29 4 57 1 44 -4 58 -10 87 -41z m872 24 c51 -38 39 -91 -41 -176 -28 -30
-51 -57 -51 -61 0 -14 73 -1 82 15 5 9 17 16 27 16 14 0 18 -8 17 -35 l-1 -35
-97 0 c-122 0 -124 6 -28 109 74 81 85 101 66 127 -16 21 -66 22 -81 1 -17
-24 -50 -25 -53 -2 -6 43 116 75 160 41z m254 -4 c35 -27 41 -52 39 -140 -1
-74 -4 -86 -27 -109 -47 -46 -140 -35 -166 22 -7 14 -12 62 -12 106 0 76 2 82
29 110 24 23 38 29 73 29 26 0 52 -7 64 -18z m259 -8 c35 -46 15 -96 -72 -181
-24 -23 -43 -43 -43 -45 0 -2 19 -3 43 -4 31 0 44 5 49 18 4 10 16 18 26 18
16 0 19 -7 19 -35 l-1 -35 -98 0 c-123 0 -124 6 -28 110 50 54 70 83 70 102 0
47 -52 58 -94 20 -22 -21 -46 -19 -46 3 0 8 12 23 28 35 22 18 37 21 80 18 36
-3 57 -11 67 -24z m230 10 c34 -22 42 -69 18 -103 -19 -25 -19 -27 -1 -45 21
-22 23 -73 4 -98 -7 -10 -24 -21 -37 -26 -49 -19 -139 7 -139 39 0 23 27 25
54 4 42 -32 86 -12 86 37 0 30 -23 48 -64 48 -26 0 -39 29 -13 31 63 4 94 37
69 76 -12 19 -59 23 -73 7 -17 -21 -61 -18 -57 3 7 40 107 57 153 27z"/>
<path d="M2419 1412 c-17 -15 -20 -28 -20 -96 0 -60 4 -83 17 -97 21 -23 57
-25 74 -4 28 33 20 202 -9 206 -3 0 -14 2 -23 4 -10 2 -27 -4 -39 -13z"/>
</g>
</svg>
